# xmcd CD database file
#
# Track frame offsets:
#	150
#	28844
#	39713
#	64072
#	79548
#	96690
#	160483
#	176232
#	191297
#	199587
#	250627
#	318027
#	328450
#	338973
#
# Disc length: 4709 seconds
#
# Revision: 0
# Processed by: cddbd v1.5.2PL0 Copyright (c) Steve Scherf et al.
# Submitted via: CDex 1.70beta2
#
DISCID=c812630e
DTITLE=The Doors - Scandinavian Prayer
DYEAR=1968
DGENRE=Blues
TTITLE0=Five to One
TTITLE1=Mack The Knife
TTITLE2=Alabama Song
TTITLE3=You're Lost Little Girl
TTITLE4=Love Me Two Times
TTITLE5=When The Music's Over
TTITLE6=Wild Child
TTITLE7=Money
TTITLE8=Wake Up!
TTITLE9=Light My Fire
TTITLE10=The End
TTITLE11=Let It Bleed
TTITLE12=I'm Ypur Doctor
TTITLE13=Love Her Madly
EXTD=YEAR: 1968
EXTT0=
EXTT1=
EXTT2=
EXTT3=
EXTT4=
EXTT5=
EXTT6=
EXTT7=
EXTT8=
EXTT9=
EXTT10=
EXTT11=
EXTT12=
EXTT13=
PLAYORDER=
